<mxfile host="app.diagrams.net" agent="Mozilla/5.0 (Windows NT 10.0; Win64; x64) AppleWebKit/537.36 (KHTML, like Gecko) Chrome/137.0.0.0 Safari/537.36" version="27.0.9">
  <diagram name="第 1 页" id="L0xWeXLf3Eql-5kfo-F9">
    <mxGraphModel dx="815" dy="429" grid="1" gridSize="10" guides="1" tooltips="1" connect="1" arrows="1" fold="1" page="1" pageScale="1" pageWidth="827" pageHeight="1169" math="0" shadow="0">
      <root>
        <mxCell id="0" />
        <mxCell id="1" parent="0" />
        <mxCell id="DF2DfWCfKy_jfR8BBDv6-24" style="edgeStyle=orthogonalEdgeStyle;rounded=0;orthogonalLoop=1;jettySize=auto;html=1;exitX=0.5;exitY=1;exitDx=0;exitDy=0;entryX=0.5;entryY=0;entryDx=0;entryDy=0;" edge="1" parent="1" source="DF2DfWCfKy_jfR8BBDv6-2" target="DF2DfWCfKy_jfR8BBDv6-5">
          <mxGeometry relative="1" as="geometry" />
        </mxCell>
        <mxCell id="DF2DfWCfKy_jfR8BBDv6-2" value="开始" style="rounded=1;html=1;fontSize=8;whiteSpace=wrap;" vertex="1" parent="1">
          <mxGeometry x="151.25" y="110" width="52.5" height="20" as="geometry" />
        </mxCell>
        <mxCell id="DF2DfWCfKy_jfR8BBDv6-10" style="edgeStyle=orthogonalEdgeStyle;rounded=0;orthogonalLoop=1;jettySize=auto;html=1;entryX=0.5;entryY=0;entryDx=0;entryDy=0;fontSize=8;" edge="1" parent="1" source="DF2DfWCfKy_jfR8BBDv6-5" target="DF2DfWCfKy_jfR8BBDv6-9">
          <mxGeometry relative="1" as="geometry" />
        </mxCell>
        <mxCell id="DF2DfWCfKy_jfR8BBDv6-5" value="点击结束初始化" style="rounded=0;html=1;fontSize=8;whiteSpace=wrap;" vertex="1" parent="1">
          <mxGeometry x="140.25" y="148" width="74.5" height="20" as="geometry" />
        </mxCell>
        <mxCell id="DF2DfWCfKy_jfR8BBDv6-30" value="" style="edgeStyle=orthogonalEdgeStyle;shape=connector;rounded=0;orthogonalLoop=1;jettySize=auto;html=1;strokeColor=default;align=center;verticalAlign=middle;fontFamily=Helvetica;fontSize=8;fontColor=default;labelBackgroundColor=default;endArrow=classic;" edge="1" parent="1" source="DF2DfWCfKy_jfR8BBDv6-9" target="DF2DfWCfKy_jfR8BBDv6-29">
          <mxGeometry relative="1" as="geometry" />
        </mxCell>
        <mxCell id="DF2DfWCfKy_jfR8BBDv6-31" value="Y" style="edgeLabel;html=1;align=center;verticalAlign=middle;resizable=0;points=[];fontFamily=Helvetica;fontSize=8;fontColor=default;labelBackgroundColor=default;" vertex="1" connectable="0" parent="DF2DfWCfKy_jfR8BBDv6-30">
          <mxGeometry x="0.1395" y="1" relative="1" as="geometry">
            <mxPoint as="offset" />
          </mxGeometry>
        </mxCell>
        <mxCell id="DF2DfWCfKy_jfR8BBDv6-50" style="edgeStyle=orthogonalEdgeStyle;shape=connector;rounded=0;orthogonalLoop=1;jettySize=auto;html=1;exitX=1;exitY=0.5;exitDx=0;exitDy=0;entryX=1;entryY=0.5;entryDx=0;entryDy=0;strokeColor=default;align=center;verticalAlign=middle;fontFamily=Helvetica;fontSize=8;fontColor=default;labelBackgroundColor=default;endArrow=classic;" edge="1" parent="1" source="DF2DfWCfKy_jfR8BBDv6-9" target="DF2DfWCfKy_jfR8BBDv6-48">
          <mxGeometry relative="1" as="geometry" />
        </mxCell>
        <mxCell id="DF2DfWCfKy_jfR8BBDv6-51" value="N" style="edgeLabel;html=1;align=center;verticalAlign=middle;resizable=0;points=[];rounded=0;shadow=0;glass=0;strokeColor=default;fontFamily=Helvetica;fontSize=8;fontColor=default;fillColor=default;" vertex="1" connectable="0" parent="DF2DfWCfKy_jfR8BBDv6-50">
          <mxGeometry x="-0.1669" y="-1" relative="1" as="geometry">
            <mxPoint as="offset" />
          </mxGeometry>
        </mxCell>
        <mxCell id="DF2DfWCfKy_jfR8BBDv6-9" value="基本校验是否通过？" style="rhombus;html=1;fontSize=8;whiteSpace=wrap;" vertex="1" parent="1">
          <mxGeometry x="120" y="180" width="115" height="40" as="geometry" />
        </mxCell>
        <mxCell id="DF2DfWCfKy_jfR8BBDv6-39" value="" style="edgeStyle=orthogonalEdgeStyle;shape=connector;rounded=0;orthogonalLoop=1;jettySize=auto;html=1;strokeColor=default;align=center;verticalAlign=middle;fontFamily=Helvetica;fontSize=8;fontColor=default;labelBackgroundColor=default;endArrow=classic;" edge="1" parent="1" source="DF2DfWCfKy_jfR8BBDv6-29" target="DF2DfWCfKy_jfR8BBDv6-38">
          <mxGeometry relative="1" as="geometry" />
        </mxCell>
        <mxCell id="DF2DfWCfKy_jfR8BBDv6-29" value="将账簿按照账簿类型、&lt;div&gt;科目表、当前期间分组&lt;/div&gt;" style="rounded=0;html=1;fontSize=8;whiteSpace=wrap;glass=0;shadow=0;metaEdit=0;" vertex="1" parent="1">
          <mxGeometry x="132.63" y="250" width="89.75" height="30" as="geometry" />
        </mxCell>
        <mxCell id="DF2DfWCfKy_jfR8BBDv6-41" value="" style="edgeStyle=orthogonalEdgeStyle;shape=connector;rounded=0;orthogonalLoop=1;jettySize=auto;html=1;strokeColor=default;align=center;verticalAlign=middle;fontFamily=Helvetica;fontSize=8;fontColor=default;labelBackgroundColor=default;endArrow=classic;" edge="1" parent="1" source="DF2DfWCfKy_jfR8BBDv6-38" target="DF2DfWCfKy_jfR8BBDv6-40">
          <mxGeometry relative="1" as="geometry" />
        </mxCell>
        <mxCell id="DF2DfWCfKy_jfR8BBDv6-38" value="批量进行原币/本位币余额查询" style="rounded=0;html=1;fontSize=8;whiteSpace=wrap;glass=0;shadow=0;metaEdit=0;" vertex="1" parent="1">
          <mxGeometry x="132.63" y="300" width="89.75" height="30" as="geometry" />
        </mxCell>
        <mxCell id="DF2DfWCfKy_jfR8BBDv6-45" value="" style="edgeStyle=orthogonalEdgeStyle;shape=connector;rounded=0;orthogonalLoop=1;jettySize=auto;html=1;strokeColor=default;align=center;verticalAlign=middle;fontFamily=Helvetica;fontSize=8;fontColor=default;labelBackgroundColor=default;endArrow=classic;" edge="1" parent="1" source="DF2DfWCfKy_jfR8BBDv6-40" target="DF2DfWCfKy_jfR8BBDv6-44">
          <mxGeometry relative="1" as="geometry" />
        </mxCell>
        <mxCell id="DF2DfWCfKy_jfR8BBDv6-40" value="批量进行原币/本位币初始化数据查询" style="rounded=0;html=1;fontSize=8;whiteSpace=wrap;glass=0;shadow=0;metaEdit=0;" vertex="1" parent="1">
          <mxGeometry x="132.63" y="350" width="89.75" height="30" as="geometry" />
        </mxCell>
        <mxCell id="DF2DfWCfKy_jfR8BBDv6-47" value="" style="edgeStyle=orthogonalEdgeStyle;shape=connector;rounded=0;orthogonalLoop=1;jettySize=auto;html=1;strokeColor=default;align=center;verticalAlign=middle;fontFamily=Helvetica;fontSize=8;fontColor=default;labelBackgroundColor=default;endArrow=classic;" edge="1" parent="1" source="DF2DfWCfKy_jfR8BBDv6-44" target="DF2DfWCfKy_jfR8BBDv6-46">
          <mxGeometry relative="1" as="geometry" />
        </mxCell>
        <mxCell id="DF2DfWCfKy_jfR8BBDv6-44" value="&lt;font style=&quot;font-size: 7px;&quot;&gt;分别按原币和本位币&lt;/font&gt;&lt;div&gt;&lt;font style=&quot;font-size: 7px;&quot;&gt;汇总余额是否存在差异？&lt;/font&gt;&lt;/div&gt;" style="rhombus;html=1;fontSize=8;whiteSpace=wrap;" vertex="1" parent="1">
          <mxGeometry x="120" y="400" width="115" height="40" as="geometry" />
        </mxCell>
        <mxCell id="DF2DfWCfKy_jfR8BBDv6-49" style="edgeStyle=orthogonalEdgeStyle;shape=connector;rounded=0;orthogonalLoop=1;jettySize=auto;html=1;exitX=0.5;exitY=1;exitDx=0;exitDy=0;entryX=0.5;entryY=0;entryDx=0;entryDy=0;strokeColor=default;align=center;verticalAlign=middle;fontFamily=Helvetica;fontSize=8;fontColor=default;labelBackgroundColor=default;endArrow=classic;" edge="1" parent="1" source="DF2DfWCfKy_jfR8BBDv6-46" target="DF2DfWCfKy_jfR8BBDv6-48">
          <mxGeometry relative="1" as="geometry" />
        </mxCell>
        <mxCell id="DF2DfWCfKy_jfR8BBDv6-46" value="给出提示，校验未通过" style="rounded=0;html=1;fontSize=8;whiteSpace=wrap;glass=0;shadow=0;metaEdit=0;" vertex="1" parent="1">
          <mxGeometry x="132.63" y="460" width="89.75" height="30" as="geometry" />
        </mxCell>
        <mxCell id="DF2DfWCfKy_jfR8BBDv6-48" value="结束" style="rounded=1;html=1;fontSize=8;whiteSpace=wrap;" vertex="1" parent="1">
          <mxGeometry x="151.25" y="510" width="52.5" height="20" as="geometry" />
        </mxCell>
      </root>
    </mxGraphModel>
  </diagram>
</mxfile>
